<svg xmlns="http://www.w3.org/2000/svg" width="39" height="39" viewBox="0 0 39 39">
    <path fill="#FFFFFE" fill-rule="evenodd" d="M18.855 2.508c.32.19.678.47 1.077.838.382.385.757.858 1.124 1.417.351.527.663 1.15.935 1.87.224.72.334 1.56.334 2.52-.028 1.758-.43 3.166-1.204 4.222-.377.512-.778.983-1.202 1.415-.47.43-.969.871-1.497 1.319a6.796 6.796 0 0 0-.84 1.032c-.303.4-.455.863-.455 1.39 0 .515.155.938.466 1.273.263.32.52.6.769.84l1.724 1.367c1.07.85 2.01 1.782 2.817 2.806.76 1.04 1.156 2.4 1.19 4.078 0 2.383-1.088 4.493-3.262 6.335-2.253 1.903-5.508 2.886-9.76 2.95-3.559-.032-6.215-.766-7.971-2.201C1.33 34.637.443 33.033.443 31.165c0-.909.287-1.924.866-3.042.557-1.116 1.57-2.098 3.036-2.944a16.192 16.192 0 0 1 5.185-1.82c1.795-.254 3.283-.399 4.47-.43a10.445 10.445 0 0 1-.98-1.496c-.335-.514-.501-1.134-.501-1.856 0-.435.063-.798.19-1.087l.31-.843c-.576.063-1.122.095-1.631.095-2.707-.032-4.768-.856-6.186-2.47-1.486-1.506-2.229-3.257-2.229-5.254 0-2.416 1.05-4.606 3.157-6.574 1.443-1.15 2.944-1.9 4.501-2.255 1.542-.304 2.986-.455 4.334-.455h10.16l-3.138 1.774h-3.132zm1.962 28.309c0-1.249-.42-2.335-1.26-3.262-.891-.88-2.282-1.96-4.175-3.24a11.799 11.799 0 0 0-1.141-.048c-.259-.03-.923 0-1.99.095-1.05.145-2.128.376-3.228.697-.26.096-.622.24-1.09.432-.47.208-.947.504-1.434.888-.47.4-.866.895-1.188 1.488-.373.624-.558 1.376-.558 2.255 0 1.728.807 3.152 2.425 4.27 1.539 1.12 3.64 1.696 6.31 1.73 2.395-.034 4.224-.546 5.484-1.537 1.23-.977 1.845-2.232 1.845-3.768zM13.733 16.4c-1.058 0-2-.312-2.822-.939a7.669 7.669 0 0 1-2.017-2.282c-1.076-1.925-1.612-3.773-1.612-5.552a5.907 5.907 0 0 1 1.103-3.654c.914-1.042 2.058-1.58 3.435-1.611 1.04.032 1.961.33 2.763.888.784.593 1.416 1.364 1.898 2.308 1.025 1.97 1.537 3.926 1.537 5.864 0 .45-.038 1.001-.112 1.659-.121.658-.398 1.299-.829 1.923-.891.882-2.006 1.348-3.344 1.396zM38.892 6.105v2.5H33.56v5.16h-2.584v-5.16h-5.33v-2.5h5.33V.945h2.584v5.16h5.33z"/>
</svg>
